<?xml version="1.0" standalone="no"?>
<!DOCTYPE svg PUBLIC "-//W3C//DTD SVG 20010904//EN"
 "http://www.w3.org/TR/2001/REC-SVG-20010904/DTD/svg10.dtd">
<svg version="1.0" xmlns="http://www.w3.org/2000/svg"
 width="400.000000pt" height="400.000000pt" viewBox="0 0 400.000000 400.000000"
 preserveAspectRatio="xMidYMid meet">
<metadata>
Created by potrace 1.11, written by Peter Selinger 2001-2013
</metadata>
<g transform="translate(0.000000,400.000000) scale(0.100000,-0.100000)"
fill="#000000" stroke="none">
<path d="M1948 3765 c-2 -2 -36 -6 -77 -9 -41 -4 -77 -9 -80 -10 -3 -2 -28 -7
-56 -10 -137 -18 -346 -90 -450 -155 -192 -120 -342 -319 -395 -525 -22 -85
-24 -241 -5 -366 8 -47 21 -134 30 -195 9 -60 18 -112 21 -116 2 -4 -4 -5 -15
-2 -29 7 -69 -36 -80 -87 -6 -25 -9 -92 -8 -150 2 -122 14 -152 100 -265 29
-38 72 -102 94 -140 46 -79 75 -100 126 -92 33 5 35 3 41 -26 14 -74 42 -146
80 -207 48 -77 64 -96 178 -215 l86 -90 -41 -12 c-23 -7 -49 -19 -58 -26 -21
-16 -52 -71 -69 -121 -27 -83 -62 -146 -102 -183 -22 -21 -53 -50 -69 -65 -17
-15 -29 -37 -29 -51 0 -26 -2 -27 -170 -52 -184 -28 -292 -47 -324 -56 -103
-29 -224 -102 -289 -173 -66 -73 -128 -217 -141 -328 l-4 -38 1754 0 c1103 0
1754 4 1754 10 0 32 -36 137 -71 210 -32 65 -59 102 -113 155 -66 65 -86 78
-228 147 -38 18 -461 117 -515 121 -7 0 -13 4 -13 9 0 6 -38 49 -84 96 -95 99
-109 122 -132 218 -19 80 -54 122 -109 131 l-34 5 84 87 c160 165 211 242 251
381 l22 75 37 -3 c45 -5 72 18 117 98 18 30 58 89 90 131 86 112 107 168 103
288 -5 171 -20 212 -82 216 -16 1 -27 7 -26 13 26 121 32 192 28 332 -5 170
-7 193 -36 325 -65 295 -182 480 -339 534 -19 6 -60 14 -90 18 -30 3 -60 6
-67 7 -7 1 -25 16 -42 33 -51 53 -159 97 -296 119 -41 7 -252 14 -257 9z"/>
</g>
</svg>
